<svg width="109" height="109" viewBox="0 0 109 109" fill="none" xmlns="http://www.w3.org/2000/svg">
<g filter="url(#filter0_d_83_89)">
<path d="M100.667 50.5C100.667 22.8858 78.281 0.5 50.6667 0.5C23.0525 0.5 0.666748 22.8858 0.666748 50.5C0.666748 78.1142 23.0525 100.5 50.6667 100.5C78.281 100.5 100.667 78.1142 100.667 50.5Z" fill="#FD78AD" fill-opacity="0.8" shape-rendering="crispEdges"/>
</g>
<path d="M61.3619 37.6451C62.1195 37.6451 62.7545 37.3888 63.267 36.8764C63.7795 36.3638 64.0357 35.7288 64.0357 34.9712C64.0357 34.2137 63.7795 33.5786 63.267 33.0662C62.7545 32.5537 62.1195 32.2975 61.3619 32.2975C60.6043 32.2975 59.9693 32.5537 59.4569 33.0662C58.9444 33.5786 58.6881 34.2137 58.6881 34.9712C58.6881 35.7288 58.9444 36.3638 59.4569 36.8764C59.9693 37.3888 60.6043 37.6451 61.3619 37.6451ZM50.6667 37.6451C51.4243 37.6451 52.0593 37.3888 52.5718 36.8764C53.0843 36.3638 53.3405 35.7288 53.3405 34.9712C53.3405 34.2137 53.0843 33.5786 52.5718 33.0662C52.0593 32.5537 51.4243 32.2975 50.6667 32.2975C49.9091 32.2975 49.2741 32.5537 48.7617 33.0662C48.2492 33.5786 47.993 34.2137 47.993 34.9712C47.993 35.7288 48.2492 36.3638 48.7617 36.8764C49.2741 37.3888 49.9091 37.6451 50.6667 37.6451ZM39.9715 37.6451C40.7291 37.6451 41.3641 37.3888 41.8766 36.8764C42.3891 36.3638 42.6454 35.7288 42.6454 34.9712C42.6454 34.2137 42.3891 33.5786 41.8766 33.0662C41.3641 32.5537 40.7291 32.2975 39.9715 32.2975C39.2139 32.2975 38.5789 32.5537 38.0665 33.0662C37.554 33.5786 37.2978 34.2137 37.2978 34.9712C37.2978 35.7288 37.554 36.3638 38.0665 36.8764C38.5789 37.3888 39.2139 37.6451 39.9715 37.6451ZM31.9502 44.6384V68.3935C31.9502 68.5994 32.0359 68.7883 32.2075 68.9591C32.3786 69.1305 32.5671 69.2169 32.773 69.2169H68.5602C68.7661 69.2169 68.955 69.1305 69.1258 68.9591C69.2972 68.7883 69.3836 68.5994 69.3836 68.3935V44.6384H31.9502ZM45.8332 54.8188H55.5003V50.5H45.8332V54.8188ZM32.773 73.2273C31.4223 73.2273 30.279 72.7591 29.3432 71.8234C28.4074 70.8877 27.9395 69.7442 27.9395 68.3935V32.6063C27.9395 31.2556 28.4074 30.1123 29.3432 29.1765C30.279 28.2407 31.4223 27.7727 32.773 27.7727H68.5602C69.9109 27.7727 71.0544 28.2407 71.9901 29.1765C72.9258 30.1123 73.394 31.2556 73.394 32.6063V68.3935C73.394 69.7442 72.9258 70.8877 71.9901 71.8234C71.0544 72.7591 69.9109 73.2273 68.5602 73.2273H32.773Z" fill="white"/>
<defs>
<filter id="filter0_d_83_89" x="0.666748" y="0.5" width="108" height="108" filterUnits="userSpaceOnUse" color-interpolation-filters="sRGB">
<feFlood flood-opacity="0" result="BackgroundImageFix"/>
<feColorMatrix in="SourceAlpha" type="matrix" values="0 0 0 0 0 0 0 0 0 0 0 0 0 0 0 0 0 0 127 0" result="hardAlpha"/>
<feOffset dx="4" dy="4"/>
<feGaussianBlur stdDeviation="2"/>
<feComposite in2="hardAlpha" operator="out"/>
<feColorMatrix type="matrix" values="0 0 0 0 0 0 0 0 0 0 0 0 0 0 0 0 0 0 0.25 0"/>
<feBlend mode="normal" in2="BackgroundImageFix" result="effect1_dropShadow_83_89"/>
<feBlend mode="normal" in="SourceGraphic" in2="effect1_dropShadow_83_89" result="shape"/>
</filter>
</defs>
</svg>
