<svg width="109" height="109" viewBox="0 0 109 109" fill="none" xmlns="http://www.w3.org/2000/svg">
<g filter="url(#filter0_d_83_75)">
<path d="M100.333 50.5C100.333 22.8858 77.9475 0.5 50.3333 0.5C22.719 0.5 0.333252 22.8858 0.333252 50.5C0.333252 78.1142 22.719 100.5 50.3333 100.5C77.9475 100.5 100.333 78.1142 100.333 50.5Z" fill="#FD78AD" fill-opacity="0.8" shape-rendering="crispEdges"/>
</g>
<path d="M50.3137 24.5471L48.3819 27.112C48.0134 27.5994 47.8425 28.2079 47.9033 28.8158C47.9641 29.4238 48.2521 29.9864 48.7098 30.3912V37.4919H40.5929C38.8707 37.4919 37.2191 38.176 36.0013 39.3938C34.7835 40.6116 34.0994 42.2632 34.0994 43.9854V53.7257H30.8526C29.1304 53.7257 27.4788 54.4097 26.261 55.6275C25.0433 56.8453 24.3591 58.4969 24.3591 60.2192V73.2058C24.3591 74.0675 24.7012 74.8929 25.3101 75.5019C25.9189 76.111 26.7448 76.4526 27.6059 76.4526H73.0604C73.9215 76.4526 74.7474 76.111 75.3565 75.5019C75.965 74.8929 76.3072 74.0675 76.3072 73.2058V60.2192C76.3072 58.4969 75.6228 56.8453 74.4052 55.6275C73.1877 54.4097 71.5358 53.7257 69.8137 53.7257H66.5669V43.9854C66.5669 42.2632 65.8825 40.6116 64.665 39.3938C63.4472 38.176 61.7956 37.4919 60.0734 37.4919H51.9565V30.3685C52.4045 29.9606 52.6835 29.3999 52.7387 28.7966C52.794 28.1934 52.6215 27.5912 52.2552 27.1088L50.3137 24.5471ZM37.3461 43.9854C37.3461 43.1243 37.6882 42.2984 38.2971 41.6895C38.9059 41.0807 39.7318 40.7386 40.5929 40.7386H60.0734C60.9345 40.7386 61.7604 41.0807 62.3692 41.6895C62.9781 42.2984 63.3202 43.1243 63.3202 43.9854V45.3295C62.9302 45.3318 62.5437 45.256 62.1835 45.1065C61.8233 44.9571 61.4966 44.7371 61.2228 44.4594C60.6456 43.8818 59.9604 43.4235 59.206 43.1109C58.4517 42.7982 57.6432 42.6373 56.8267 42.6373C56.0101 42.6373 55.2016 42.7982 54.4473 43.1109C53.693 43.4235 53.0077 43.8818 52.4306 44.4594C51.8741 45.0153 51.1197 45.3276 50.3332 45.3276C49.5466 45.3276 48.7922 45.0153 48.2358 44.4594C47.6586 43.8818 46.9734 43.4235 46.219 43.1109C45.4647 42.7982 44.6562 42.6373 43.8396 42.6373C43.0231 42.6373 42.2146 42.7982 41.4603 43.1109C40.7059 43.4235 40.0207 43.8818 39.4435 44.4594C39.1697 44.7371 38.843 44.9571 38.4828 45.1065C38.1226 45.256 37.7361 45.3318 37.3461 45.3295V43.9854ZM37.3461 48.5763C38.9371 48.5763 40.528 47.9692 41.7422 46.7581C42.2987 46.2021 43.0531 45.8899 43.8396 45.8899C44.6262 45.8899 45.3806 46.2021 45.9371 46.7581C48.3656 49.1834 52.3007 49.1834 54.7293 46.7581C55.2857 46.2021 56.0401 45.8899 56.8267 45.8899C57.6132 45.8899 58.3676 46.2021 58.9241 46.7581C60.1384 47.9692 61.7293 48.5763 63.3202 48.5763V53.7257H37.3461V48.5763ZM27.6059 60.2192C27.6059 59.3581 27.948 58.5322 28.5569 57.9233C29.1657 57.3145 29.9915 56.9724 30.8526 56.9724H69.8137C70.6747 56.9724 71.5007 57.3145 72.1098 57.9233C72.7182 58.5322 73.0604 59.3581 73.0604 60.2192V62.7938L71.9111 63.9432C71.6358 64.2189 71.3085 64.4377 70.9481 64.587C70.5877 64.7362 70.202 64.813 69.8124 64.813C69.4221 64.813 69.0364 64.7362 68.676 64.587C68.3156 64.4377 67.9883 64.2189 67.713 63.9432C67.1358 63.366 66.4507 62.9082 65.6968 62.5958C64.9428 62.2835 64.1347 62.1227 63.3185 62.1227C62.5024 62.1227 61.6943 62.2835 60.9402 62.5958C60.1862 62.9082 59.5011 63.366 58.9241 63.9432C58.3676 64.4991 57.6132 64.8114 56.8267 64.8114C56.0401 64.8114 55.2857 64.4991 54.7293 63.9432C54.1521 63.3655 53.4669 62.9073 52.7125 62.5947C51.9582 62.282 51.1497 62.1211 50.3332 62.1211C49.5166 62.1211 48.7081 62.282 47.9538 62.5947C47.1995 62.9073 46.5142 63.3655 45.9371 63.9432C45.3806 64.4991 44.6262 64.8114 43.8396 64.8114C43.0531 64.8114 42.2987 64.4991 41.7422 63.9432C41.1651 63.3655 40.4798 62.9073 39.7255 62.5947C38.9712 62.282 38.1627 62.1211 37.3461 62.1211C36.5296 62.1211 35.7211 62.282 34.9668 62.5947C34.2124 62.9073 33.5272 63.3655 32.95 63.9432C32.3936 64.4991 31.6392 64.8114 30.8526 64.8114C30.0661 64.8114 29.3117 64.4991 28.7552 63.9432L27.6059 62.7938V60.2192ZM65.4176 66.2383C66.4046 67.226 67.6955 67.8519 69.0819 68.0162C70.4682 68.1805 71.8695 67.8734 73.0604 67.1442V73.2058H27.6059V67.1442C29.9987 68.6117 33.1741 68.313 35.2487 66.2351C35.8052 65.6792 36.5596 65.3671 37.3461 65.3671C38.1327 65.3671 38.8871 65.6792 39.4435 66.2351C41.8721 68.6636 45.8072 68.6636 48.2358 66.2351C48.7922 65.6792 49.5466 65.3671 50.3332 65.3671C51.1197 65.3671 51.8741 65.6792 52.4306 66.2351C54.8591 68.6636 58.7942 68.6636 61.2195 66.2351C61.4951 65.9597 61.8223 65.7409 62.1825 65.5916C62.5426 65.4422 62.9287 65.3655 63.3185 65.3655C63.7084 65.3655 64.0945 65.4422 64.4546 65.5916C64.8148 65.7409 65.142 65.9597 65.4176 66.2351V66.2383Z" fill="white"/>
<defs>
<filter id="filter0_d_83_75" x="0.333252" y="0.5" width="108" height="108" filterUnits="userSpaceOnUse" color-interpolation-filters="sRGB">
<feFlood flood-opacity="0" result="BackgroundImageFix"/>
<feColorMatrix in="SourceAlpha" type="matrix" values="0 0 0 0 0 0 0 0 0 0 0 0 0 0 0 0 0 0 127 0" result="hardAlpha"/>
<feOffset dx="4" dy="4"/>
<feGaussianBlur stdDeviation="2"/>
<feComposite in2="hardAlpha" operator="out"/>
<feColorMatrix type="matrix" values="0 0 0 0 0 0 0 0 0 0 0 0 0 0 0 0 0 0 0.25 0"/>
<feBlend mode="normal" in2="BackgroundImageFix" result="effect1_dropShadow_83_75"/>
<feBlend mode="normal" in="SourceGraphic" in2="effect1_dropShadow_83_75" result="shape"/>
</filter>
</defs>
</svg>
