<svg width="108" height="109" viewBox="0 0 108 109" fill="none" xmlns="http://www.w3.org/2000/svg">
<g filter="url(#filter0_d_83_82)">
<path d="M100 50.5C100 22.8858 77.6142 0.5 50 0.5C22.3858 0.5 0 22.8858 0 50.5C0 78.1142 22.3858 100.5 50 100.5C77.6142 100.5 100 78.1142 100 50.5Z" fill="#FD78AD" fill-opacity="0.8" shape-rendering="crispEdges"/>
</g>
<path d="M23.3333 69.4893V65.2268H76.6666V69.4893H23.3333ZM25.8466 61.8389V60.0899C25.8466 54.2647 27.7282 49.1729 31.4914 44.8144C35.2546 40.4555 40.0033 37.7695 45.7376 36.7564V35.7733C45.7376 34.6111 46.1574 33.6101 46.9971 32.7704C47.8368 31.9307 48.8377 31.5109 49.9999 31.5109C51.1621 31.5109 52.1631 31.9307 53.0027 32.7704C53.8425 33.6101 54.2623 34.6111 54.2623 35.7733V36.7564C60.0255 37.7695 64.7812 40.4555 68.5299 44.8144C72.2786 49.1729 74.1533 54.2647 74.1533 60.0899V61.8389H25.8466ZM30.2781 57.5766H69.7219C69.1679 52.7971 67.0019 48.7696 63.2239 45.4943C59.446 42.2193 55.038 40.5819 49.9999 40.5819C44.9619 40.5819 40.5609 42.2193 36.7973 45.4943C33.0341 48.7696 30.8611 52.7971 30.2781 57.5766Z" fill="white"/>
<defs>
<filter id="filter0_d_83_82" x="0" y="0.5" width="108" height="108" filterUnits="userSpaceOnUse" color-interpolation-filters="sRGB">
<feFlood flood-opacity="0" result="BackgroundImageFix"/>
<feColorMatrix in="SourceAlpha" type="matrix" values="0 0 0 0 0 0 0 0 0 0 0 0 0 0 0 0 0 0 127 0" result="hardAlpha"/>
<feOffset dx="4" dy="4"/>
<feGaussianBlur stdDeviation="2"/>
<feComposite in2="hardAlpha" operator="out"/>
<feColorMatrix type="matrix" values="0 0 0 0 0 0 0 0 0 0 0 0 0 0 0 0 0 0 0.25 0"/>
<feBlend mode="normal" in2="BackgroundImageFix" result="effect1_dropShadow_83_82"/>
<feBlend mode="normal" in="SourceGraphic" in2="effect1_dropShadow_83_82" result="shape"/>
</filter>
</defs>
</svg>
