<svg width="114" height="54" viewBox="0 0 114 54" fill="none" xmlns="http://www.w3.org/2000/svg">
<g clip-path="url(#clip0_103_491)">
<path d="M101.995 26.3621C101.995 30.2462 98.8796 33.4643 94.6686 33.4643C90.4561 33.4643 87.4004 30.2462 87.4004 26.3621C87.4004 22.4767 90.4575 19.2573 94.6686 19.2573C98.8796 19.2573 101.995 22.478 101.995 26.3621Z" fill="#FEC9DE"/>
<path d="M67.7941 26.1401C67.7941 30.0804 64.5645 33.0215 60.4675 33.0215C56.4302 33.0215 53.2007 30.079 53.2007 26.1401C53.2007 22.1985 56.4302 19.3135 60.4689 19.3135C64.5645 19.3135 67.7941 22.1998 67.7941 26.1401Z" fill="#FD78AD"/>
<path d="M27.9078 33.4643C32.1189 33.4643 35.2344 30.2462 35.2344 26.3621C35.2344 22.4767 32.1189 19.2573 27.9078 19.2573C23.6954 19.2573 20.6396 22.4767 20.6396 26.3608C20.6396 30.2462 23.6968 33.4643 27.9078 33.4643Z" fill="#5FCAC7"/>
<path d="M94.6687 40.8473C85.9004 40.8473 79.2091 34.2975 79.2091 26.3059C79.2091 18.3692 85.9588 11.8208 94.6687 11.8208C103.495 11.8208 110.187 18.4254 110.187 26.3059C110.187 34.2975 103.437 40.8459 94.6687 40.8459V40.8473ZM94.6687 33.4642C98.8811 33.4642 101.995 30.2462 101.995 26.3621C101.995 22.4767 98.8811 19.2573 94.6687 19.2573C90.4576 19.2573 87.4005 22.4767 87.4005 26.3608C87.4005 30.2462 90.4576 33.4642 94.6687 33.4642ZM59.8917 53.5C53.2005 53.5 48.0663 50.6699 45.4707 45.5633L52.2773 42.0122C53.5466 44.3983 55.9114 46.2855 59.7763 46.2855C64.6227 46.2855 67.9092 43.0113 67.9092 37.6279V37.1277C66.3522 39.0149 63.5842 40.458 59.5455 40.458C51.5266 40.458 45.1245 34.4647 45.1245 26.3059C45.1245 18.3692 51.8158 11.877 60.584 11.877C69.5247 11.877 76.102 18.0362 76.102 26.3059V37.4059C76.102 47.1736 69.1785 53.5 59.8917 53.5ZM60.4687 33.0215C64.5643 33.0215 67.7952 30.079 67.7952 26.1401C67.7952 22.1985 64.5643 19.3135 60.4687 19.3135C56.43 19.3135 53.2005 22.1998 53.2005 26.1401C53.2005 30.0804 56.43 33.0215 60.4687 33.0215ZM27.9078 40.8473C19.1395 40.8473 12.4482 34.2975 12.4482 26.3059C12.4482 18.3692 19.1965 11.8208 27.9078 11.8208C36.733 11.8208 43.4257 18.4254 43.4257 26.3059C43.4257 34.2975 36.676 40.8459 27.9078 40.8459V40.8473ZM27.9078 33.4642C32.1188 33.4642 35.2343 30.2462 35.2343 26.3621C35.2343 22.4767 32.1188 19.2573 27.9078 19.2573C23.6953 19.2573 20.6396 22.4767 20.6396 26.3608C20.6396 30.2462 23.6967 33.4642 27.9078 33.4642ZM0 0H8.19132V40.125H0V0ZM114 8.69375C114 9.58057 113.634 10.4311 112.982 11.0581C112.33 11.6852 111.446 12.0375 110.524 12.0375C109.603 12.0375 108.719 11.6852 108.067 11.0581C107.415 10.4311 107.049 9.58057 107.049 8.69375C107.049 7.80693 107.415 6.95644 108.067 6.32936C108.719 5.70229 109.603 5.35 110.524 5.35C111.446 5.35 112.33 5.70229 112.982 6.32936C113.634 6.95644 114 7.80693 114 8.69375Z" fill="#171A26"/>
</g>
<defs>
<clipPath id="clip0_103_491">
<rect width="114" height="53.5" fill="white"/>
</clipPath>
</defs>
</svg>
