<svg width="30" height="29" viewBox="0 0 30 29" fill="none" xmlns="http://www.w3.org/2000/svg">
<path d="M12.132 2.64461C13.0102 -0.160314 16.9798 -0.160309 17.858 2.64461L19.0956 6.59769C19.4874 7.84937 20.647 8.70138 21.9585 8.70138H26.1937C29.0728 8.70138 30.2988 12.3633 27.9999 14.0967L24.3842 16.8232C23.3715 17.5867 22.9485 18.9045 23.3274 20.1148L24.6628 24.3806C25.5343 27.1642 22.3227 29.4284 19.9937 27.6722L16.8012 25.265C15.732 24.4587 14.258 24.4587 13.1888 25.265L9.99632 27.6722C7.66733 29.4284 4.45568 27.1642 5.32716 24.3806L6.66263 20.1148C7.04153 18.9045 6.61845 17.5867 5.60585 16.8232L1.99006 14.0967C-0.30876 12.3633 0.917142 8.70138 3.79626 8.70138H8.03146C9.34304 8.70138 10.5026 7.84937 10.8944 6.59769L12.132 2.64461Z" fill="#FD78AD"/>
</svg>
